<svg width="24" height="25" viewBox="0 0 24 25" fill="none" xmlns="http://www.w3.org/2000/svg">
<path d="M22.4765 9.01347C22.4765 9.02379 22.4765 9.03316 22.4699 9.04347L20.3437 18.7813C20.2782 19.1242 20.0952 19.4335 19.8262 19.656C19.5572 19.8784 19.219 20.0001 18.8699 20H5.12899C4.78007 19.9999 4.44211 19.8781 4.17328 19.6557C3.90446 19.4332 3.7216 19.124 3.65618 18.7813L1.52993 9.04347C1.52993 9.03316 1.52524 9.02379 1.52337 9.01347C1.46517 8.69107 1.51413 8.35848 1.66277 8.06652C1.8114 7.77456 2.05153 7.53929 2.34646 7.39665C2.6414 7.25402 2.97493 7.21187 3.29607 7.27664C3.61722 7.34141 3.90833 7.50955 4.12493 7.75535L7.28149 11.1575L10.6377 3.63035C10.6379 3.62723 10.6379 3.6241 10.6377 3.62097C10.7578 3.36067 10.9498 3.14021 11.1912 2.98568C11.4327 2.83115 11.7133 2.74902 11.9999 2.74902C12.2866 2.74902 12.5672 2.83115 12.8086 2.98568C13.05 3.14021 13.2421 3.36067 13.3621 3.62097C13.362 3.6241 13.362 3.62723 13.3621 3.63035L16.7184 11.1575L19.8749 7.75535C20.092 7.51137 20.3827 7.34488 20.703 7.28117C21.0232 7.21746 21.3556 7.26 21.6495 7.40233C21.9434 7.54466 22.1828 7.77902 22.3314 8.0698C22.48 8.36058 22.5296 8.69191 22.4727 9.01347H22.4765Z" fill="#0C402A"/>
</svg>
