<svg width="24" height="25" viewBox="0 0 24 25" fill="none" xmlns="http://www.w3.org/2000/svg">
<path d="M19.5 3.5H4.5C4.10218 3.5 3.72064 3.65804 3.43934 3.93934C3.15804 4.22064 3 4.60218 3 5V20C3 20.3978 3.15804 20.7794 3.43934 21.0607C3.72064 21.342 4.10218 21.5 4.5 21.5H19.5C19.8978 21.5 20.2794 21.342 20.5607 21.0607C20.842 20.7794 21 20.3978 21 20V5C21 4.60218 20.842 4.22064 20.5607 3.93934C20.2794 3.65804 19.8978 3.5 19.5 3.5ZM17.25 9.5C17.25 9.69891 17.171 9.88968 17.0303 10.0303C16.8897 10.171 16.6989 10.25 16.5 10.25C16.3011 10.25 16.1103 10.171 15.9697 10.0303C15.829 9.88968 15.75 9.69891 15.75 9.5V8.75H12.75V17H13.875C14.0739 17 14.2647 17.079 14.4053 17.2197C14.546 17.3603 14.625 17.5511 14.625 17.75C14.625 17.9489 14.546 18.1397 14.4053 18.2803C14.2647 18.421 14.0739 18.5 13.875 18.5H10.125C9.92609 18.5 9.73532 18.421 9.59467 18.2803C9.45402 18.1397 9.375 17.9489 9.375 17.75C9.375 17.5511 9.45402 17.3603 9.59467 17.2197C9.73532 17.079 9.92609 17 10.125 17H11.25V8.75H8.25V9.5C8.25 9.69891 8.17098 9.88968 8.03033 10.0303C7.88968 10.171 7.69891 10.25 7.5 10.25C7.30109 10.25 7.11032 10.171 6.96967 10.0303C6.82902 9.88968 6.75 9.69891 6.75 9.5V8C6.75 7.80109 6.82902 7.61032 6.96967 7.46967C7.11032 7.32902 7.30109 7.25 7.5 7.25H16.5C16.6989 7.25 16.8897 7.32902 17.0303 7.46967C17.171 7.61032 17.25 7.80109 17.25 8V9.5Z" fill="#0C402A"/>
</svg>
