<svg width="25" height="25" viewBox="0 0 25 25" fill="none" xmlns="http://www.w3.org/2000/svg">
<path fill-rule="evenodd" clip-rule="evenodd" d="M12.3332 7.88327L10.9204 6.47042L12.3332 5.05757L13.7461 6.47042L12.3332 7.88327ZM8.11252 7.07338C7.77957 6.74043 7.77957 6.20042 8.11252 5.86746L11.7303 2.24972C12.0632 1.91676 12.6032 1.91676 12.9362 2.24972L16.5539 5.86746C16.8868 6.20042 16.8868 6.74043 16.5539 7.07338L12.9362 10.6911C12.6032 11.0241 12.0632 11.0241 11.7303 10.6911L8.11252 7.07338ZM6.30365 13.9129L4.89081 12.5L6.30365 11.0871L7.7165 12.5L6.30365 13.9129ZM2.08297 13.103C1.75001 12.77 1.75001 12.23 2.08297 11.897L5.7007 8.27929C6.03377 7.94634 6.57366 7.94634 6.90661 8.27929L10.5243 11.897C10.8574 12.23 10.8573 12.77 10.5243 13.103L6.90661 16.7207C6.57366 17.0537 6.03365 17.0537 5.7007 16.7207L2.08297 13.103ZM10.9204 18.5296L12.3332 19.9424L13.7461 18.5296L12.3332 17.1167L10.9204 18.5296ZM8.11252 17.9266C7.77957 18.2596 7.77957 18.7996 8.11252 19.1325L11.7303 22.7503C12.0632 23.0832 12.6032 23.0832 12.9362 22.7503L16.5539 19.1325C16.8868 18.7996 16.8868 18.2596 16.5539 17.9266L12.9362 14.3089C12.6032 13.9759 12.0632 13.9759 11.7303 14.3089L8.11252 17.9266ZM18.3628 13.9129L16.9499 12.5L18.3628 11.0871L19.7756 12.5L18.3628 13.9129ZM14.1421 13.103C13.8091 12.77 13.8091 12.23 14.1421 11.897L17.7598 8.27929C18.0929 7.94634 18.6328 7.94634 18.9657 8.27929L22.5834 11.897C22.9165 12.23 22.9165 12.77 22.5834 13.103L18.9657 16.7207C18.6328 17.0537 18.0929 17.0537 17.7598 16.7207L14.1421 13.103Z" fill="#222222"/>
</svg>
