<svg width="133" height="37" viewBox="0 0 133 37" fill="none" xmlns="http://www.w3.org/2000/svg">
<g clip-path="url(#clip0_2006_388)">
<path d="M12.9118 36.9751C10.2922 36.9751 8.01138 36.4986 6.07366 35.5456C4.13381 34.5927 2.63658 33.267 1.58195 31.5643C0.527315 29.8638 0 27.89 0 25.6431H4.49171C4.49171 27.0387 4.81361 28.322 5.46163 29.4974C6.10754 30.6706 7.05205 31.6066 8.29516 32.3034C9.53615 33.0001 11.0757 33.3495 12.9139 33.3495C14.5128 33.3495 15.883 33.0869 17.0223 32.5575C18.1617 32.0302 19.0299 31.3081 19.625 30.389C20.2201 29.4699 20.5187 28.4322 20.5187 27.2759C20.5187 25.8803 20.2201 24.7494 19.625 23.8812C19.0299 23.0129 18.221 22.3077 17.2002 21.7634C16.1795 21.2192 14.9978 20.7342 13.653 20.3085C12.3083 19.8829 10.9042 19.4149 9.44297 18.9045C6.61792 17.9515 4.54254 16.7698 3.21684 15.3573C1.88902 13.9448 1.22617 12.1002 1.22617 9.81941C1.22617 7.87957 1.67724 6.17903 2.5794 4.71568C3.47944 3.25232 4.77337 2.10451 6.45909 1.27013C8.14057 0.442092 10.1397 0.0248985 12.4523 0.0248985C14.7648 0.0248985 16.7131 0.450563 18.3989 1.29977C20.0825 2.1511 21.4018 3.31586 22.3548 4.79615C23.3078 6.27645 23.7843 7.98546 23.7843 9.9253H19.2925C19.2925 8.93844 19.0363 7.96851 18.5259 7.01553C18.0156 6.06255 17.2405 5.27264 16.2028 4.64156C15.1651 4.01259 13.8627 3.69705 12.2977 3.69705C11.0037 3.66316 9.85593 3.87494 8.85212 4.33449C7.84832 4.79403 7.06687 5.44841 6.50356 6.29974C5.94236 7.15107 5.6607 8.18876 5.6607 9.41281C5.6607 10.5691 5.90636 11.5051 6.39979 12.2188C6.89322 12.9325 7.6069 13.5382 8.54293 14.0316C9.47897 14.525 10.576 14.9761 11.8339 15.3848C13.0918 15.7935 14.4874 16.2531 16.0185 16.7635C17.753 17.3416 19.2925 18.0489 20.6373 18.8812C21.9799 19.7156 23.0367 20.7787 23.8012 22.0705C24.5657 23.3644 24.949 25.0141 24.949 27.0218C24.949 28.7244 24.4979 30.3318 23.5958 31.8438C22.6936 33.358 21.3573 34.5927 19.589 35.5435C17.8186 36.4965 15.5907 36.973 12.9033 36.973L12.9118 36.9751Z" fill="#120726"/>
<path d="M38.4305 36.3631C36.8993 36.3631 35.5715 36.1259 34.4491 35.6494C33.3267 35.1729 32.4669 34.3661 31.8718 33.2246C31.2768 32.0853 30.9782 30.5457 30.9782 28.6058V14.2645H26.4865V10.6411H30.9782L31.5394 4.41496H35.2645V10.6411H42.7168V14.2645H35.2645V28.6058C35.2645 30.2047 35.5863 31.2847 36.2344 31.8459C36.8803 32.4071 38.0217 32.6888 39.6545 32.6888H42.4097V36.3631H38.4283H38.4305Z" fill="#120726"/>
<path d="M54.1505 36.9751C52.0751 36.9751 50.3386 36.6087 48.9451 35.8781C47.5495 35.1475 46.5118 34.1776 45.832 32.9684C45.1501 31.7612 44.8113 30.4419 44.8113 29.0124C44.8113 27.278 45.2624 25.8062 46.1645 24.597C47.0645 23.3898 48.3415 22.4708 49.9913 21.8418C51.641 21.2128 53.5893 20.8973 55.8341 20.8973H62.6214C62.6214 19.2984 62.3736 17.9621 61.8823 16.8905C61.3889 15.819 60.6752 15.01 59.7392 14.4657C58.8031 13.9215 57.6384 13.6483 56.2428 13.6483C54.61 13.6483 53.1975 14.057 52.0073 14.8723C50.8151 15.6898 50.0844 16.8969 49.8134 18.4958H45.4233C45.6266 16.6576 46.2471 15.1201 47.2869 13.877C48.3246 12.636 49.6418 11.683 51.2428 11.0181C52.8417 10.3552 54.5084 10.0227 56.2449 10.0227C58.6252 10.0227 60.6074 10.4569 62.1915 11.3251C63.7735 12.1934 64.9552 13.4005 65.7387 14.9486C66.5202 16.4966 66.9119 18.3264 66.9119 20.4356V36.3588H63.0852L62.8289 31.8163C62.488 32.53 62.0539 33.2034 61.5265 33.8324C60.9992 34.4614 60.3872 35.0056 59.6884 35.4652C58.9916 35.9247 58.1826 36.2911 57.2635 36.5621C56.3444 36.8332 55.3068 36.9709 54.1505 36.9709V36.9751ZM54.8133 33.3517C56.0035 33.3517 57.0835 33.106 58.0535 32.6126C59.0234 32.1191 59.8472 31.4394 60.5291 30.5711C61.2089 29.7028 61.7277 28.7435 62.0856 27.6867C62.4435 26.6321 62.6214 25.5266 62.6214 24.3704V24.2179H56.1899C54.5232 24.2179 53.1784 24.4148 52.1577 24.8045C51.1369 25.1963 50.4042 25.7405 49.9637 26.4373C49.5211 27.134 49.3009 27.926 49.3009 28.8112C49.3009 29.6965 49.5126 30.5287 49.9383 31.2106C50.364 31.8925 50.9929 32.4199 51.8273 32.7926C52.6596 33.1674 53.6549 33.3538 54.8133 33.3538V33.3517Z" fill="#120726"/>
<path d="M90.9969 10.0037H90.9948V13.2141H90.9969V10.0037Z" fill="#120726"/>
<path d="M90.9969 14.5208V28.6037C90.9969 30.2047 91.321 31.2847 91.9669 31.8459C92.6128 32.4071 93.7542 32.6867 95.387 32.6867H98.1422V36.3631H94.1608C92.6297 36.3631 91.304 36.1238 90.1816 35.6473C89.0571 35.1708 88.1994 34.3639 87.6043 33.2225C87.0071 32.0831 86.7107 30.5435 86.7107 28.6037V14.5208H85.0271L83.443 14.5187C82.3545 14.5187 81.3168 14.6627 80.3299 14.9528C79.3431 15.2408 78.4684 15.7088 77.7018 16.3569C76.9373 17.0028 76.3422 17.8795 75.9166 18.985C75.4909 20.0904 75.2791 21.4585 75.2791 23.0934V36.3631H70.9907V10.639H74.8704L75.1754 15.5394C75.7535 14.3831 76.4947 13.3963 77.3969 12.5788C78.2969 11.7635 79.3875 11.1324 80.6624 10.6898C81.9394 10.2493 83.3922 10.0269 85.0271 10.0269L86.7657 10.0206L87.2719 4.41284H90.9969V10.0037H90.9948V13.2141H90.9969L94.2201 9.99095L101.886 9.9613V14.5208H90.9969Z" fill="#120726"/>
<path d="M90.9969 10.0037H90.9948V13.2141H90.9969V10.0037Z" fill="#120726"/>
<path d="M112.28 36.9751C109.898 36.9751 107.754 36.4224 105.848 35.3169C103.943 34.2115 102.445 32.6465 101.357 30.6219C100.268 28.5973 99.724 26.2424 99.724 23.5529C99.724 20.8634 100.277 18.4068 101.382 16.3823C102.488 14.3577 104.002 12.7927 105.925 11.6873C107.846 10.5818 109.999 10.0291 112.382 10.0291C114.764 10.0291 117 10.5818 118.889 11.6873C120.779 12.7927 122.274 14.3598 123.381 16.3823C124.487 18.4068 125.039 20.7808 125.039 23.5021C125.039 26.2234 124.478 28.5973 123.356 30.6219C122.233 32.6465 120.719 34.2115 118.813 35.3169C116.907 36.4224 114.73 36.9751 112.28 36.9751ZM112.331 33.3008C113.794 33.3008 115.154 32.9366 116.414 32.2038C117.672 31.4732 118.693 30.3762 119.476 28.9129C120.258 27.4495 120.649 25.6473 120.649 23.5042C120.649 21.3611 120.266 19.5144 119.502 18.068C118.735 16.6216 117.731 15.5331 116.49 14.8024C115.247 14.0718 113.879 13.7055 112.382 13.7055C110.884 13.7055 109.601 14.0718 108.324 14.8024C107.049 15.5352 106.028 16.6237 105.262 18.068C104.497 19.5144 104.114 21.3272 104.114 23.5042C104.114 25.6812 104.497 27.4517 105.262 28.9129C106.028 30.3762 107.03 31.4732 108.273 32.2038C109.514 32.9366 110.868 33.3008 112.331 33.3008Z" fill="#120726"/>
<path d="M130.039 36.6172C129.188 36.6172 128.483 36.3355 127.922 35.7743C127.36 35.2131 127.079 34.5249 127.079 33.7074C127.079 32.89 127.36 32.2017 127.922 31.6405C128.483 31.0793 129.188 30.7977 130.039 30.7977C130.891 30.7977 131.587 31.0793 132.132 31.6405C132.676 32.2017 132.949 32.89 132.949 33.7074C132.949 34.5249 132.676 35.2131 132.132 35.7743C131.587 36.3355 130.889 36.6172 130.039 36.6172Z" fill="#3DFCAA"/>
</g>
<defs>
<clipPath id="clip0_2006_388">
<rect width="132.949" height="36.9502" fill="white" transform="translate(0 0.0248985)"/>
</clipPath>
</defs>
</svg>
