<svg width="133" height="37" viewBox="0 0 133 37" fill="none" xmlns="http://www.w3.org/2000/svg">
<g clip-path="url(#clip0_2007_346)">
<path d="M12.9118 36.9502C10.2922 36.9502 8.01138 36.4737 6.07366 35.5207C4.13381 34.5678 2.63658 33.2421 1.58195 31.5394C0.527315 29.8389 0 27.8651 0 25.6182H4.49171C4.49171 27.0138 4.81361 28.2971 5.46163 29.4725C6.10754 30.6457 7.05205 31.5818 8.29516 32.2785C9.53615 32.9752 11.0757 33.3246 12.9139 33.3246C14.5128 33.3246 15.883 33.062 17.0223 32.5326C18.1617 32.0053 19.0299 31.2832 19.625 30.3641C20.2201 29.445 20.5187 28.4073 20.5187 27.251C20.5187 25.8554 20.2201 24.7245 19.625 23.8563C19.0299 22.988 18.221 22.2828 17.2002 21.7385C16.1795 21.1943 14.9978 20.7093 13.653 20.2836C12.3083 19.858 10.9042 19.39 9.44297 18.8796C6.61792 17.9266 4.54254 16.7449 3.21684 15.3324C1.88902 13.9199 1.22617 12.0753 1.22617 9.79451C1.22617 7.85467 1.67724 6.15413 2.5794 4.69078C3.47944 3.22742 4.77337 2.07961 6.45909 1.24523C8.14057 0.417193 10.1397 0 12.4523 0C14.7648 0 16.7131 0.425664 18.3989 1.27488C20.0825 2.1262 21.4018 3.29096 22.3548 4.77125C23.3078 6.25155 23.7843 7.96056 23.7843 9.9004H19.2925C19.2925 8.91354 19.0363 7.94362 18.5259 6.99064C18.0156 6.03766 17.2405 5.24774 16.2028 4.61666C15.1651 3.98769 13.8627 3.67215 12.2977 3.67215C11.0037 3.63827 9.85593 3.85004 8.85212 4.30959C7.84832 4.76913 7.06687 5.42351 6.50356 6.27484C5.94236 7.12617 5.6607 8.16386 5.6607 9.38791C5.6607 10.5442 5.90636 11.4802 6.39979 12.1939C6.89322 12.9076 7.6069 13.5133 8.54293 14.0067C9.47897 14.5001 10.576 14.9512 11.8339 15.3599C13.0918 15.7686 14.4874 16.2282 16.0185 16.7386C17.753 17.3167 19.2925 18.024 20.6373 18.8563C21.9799 19.6907 23.0367 20.7538 23.8012 22.0456C24.5657 23.3395 24.949 24.9892 24.949 26.9969C24.949 28.6995 24.4979 30.3069 23.5958 31.8189C22.6936 33.3331 21.3573 34.5678 19.589 35.5186C17.8186 36.4716 15.5907 36.9481 12.9033 36.9481L12.9118 36.9502Z" fill="white"/>
<path d="M38.4305 36.3382C36.8993 36.3382 35.5715 36.101 34.4491 35.6245C33.3267 35.148 32.4669 34.3411 31.8718 33.1997C31.2768 32.0603 30.9782 30.5208 30.9782 28.5809V14.2396H26.4865V10.6162H30.9782L31.5394 4.39005H35.2645V10.6162H42.7168V14.2396H35.2645V28.5809C35.2645 30.1798 35.5863 31.2598 36.2344 31.821C36.8803 32.3822 38.0217 32.6639 39.6545 32.6639H42.4097V36.3382H38.4283H38.4305Z" fill="white"/>
<path d="M54.1505 36.9502C52.0751 36.9502 50.3386 36.5839 48.9451 35.8532C47.5495 35.1226 46.5118 34.1527 45.832 32.9435C45.1501 31.7364 44.8113 30.417 44.8113 28.9875C44.8113 27.2531 45.2624 25.7813 46.1645 24.5721C47.0645 23.365 48.3415 22.4459 49.9913 21.8169C51.641 21.1879 53.5893 20.8724 55.8341 20.8724H62.6214C62.6214 19.2735 62.3736 17.9372 61.8823 16.8656C61.3889 15.7941 60.6752 14.9851 59.7392 14.4408C58.8031 13.8966 57.6384 13.6234 56.2428 13.6234C54.61 13.6234 53.1975 14.0321 52.0073 14.8474C50.8151 15.6649 50.0844 16.872 49.8134 18.4709H45.4233C45.6266 16.6327 46.2471 15.0952 47.2869 13.8521C48.3246 12.6111 49.6418 11.6581 51.2428 10.9932C52.8417 10.3303 54.5084 9.99783 56.2449 9.99783C58.6252 9.99783 60.6074 10.432 62.1915 11.3002C63.7735 12.1685 64.9552 13.3756 65.7387 14.9237C66.5202 16.4717 66.9119 18.3015 66.9119 20.4107V36.334H63.0852L62.8289 31.7914C62.488 32.5051 62.0539 33.1785 61.5265 33.8075C60.9992 34.4365 60.3872 34.9807 59.6884 35.4403C58.9916 35.8998 58.1826 36.2662 57.2635 36.5373C56.3444 36.8083 55.3068 36.946 54.1505 36.946V36.9502ZM54.8133 33.3268C56.0035 33.3268 57.0835 33.0811 58.0535 32.5877C59.0234 32.0943 59.8472 31.4145 60.5291 30.5462C61.2089 29.6779 61.7277 28.7186 62.0856 27.6618C62.4435 26.6072 62.6214 25.5018 62.6214 24.3455V24.193H56.1899C54.5232 24.193 53.1784 24.3899 52.1577 24.7796C51.1369 25.1714 50.4042 25.7156 49.9637 26.4124C49.5211 27.1091 49.3009 27.9011 49.3009 28.7864C49.3009 29.6716 49.5126 30.5038 49.9383 31.1857C50.364 31.8677 50.9929 32.395 51.8273 32.7677C52.6596 33.1425 53.6549 33.3289 54.8133 33.3289V33.3268Z" fill="white"/>
<path d="M90.9969 9.97876H90.9948V13.1892H90.9969V9.97876Z" fill="white"/>
<path d="M90.9969 14.4959V28.5788C90.9969 30.1798 91.321 31.2599 91.9669 31.8211C92.6128 32.3823 93.7542 32.6618 95.387 32.6618H98.1422V36.3382H94.1608C92.6297 36.3382 91.304 36.0989 90.1816 35.6224C89.0571 35.1459 88.1994 34.339 87.6043 33.1976C87.0071 32.0582 86.7107 30.5186 86.7107 28.5788V14.4959H85.0271L83.443 14.4938C82.3545 14.4938 81.3168 14.6378 80.3299 14.9279C79.3431 15.2159 78.4684 15.6839 77.7018 16.332C76.9373 16.9779 76.3422 17.8546 75.9166 18.9601C75.4909 20.0655 75.2791 21.4336 75.2791 23.0685V36.3382H70.9907V10.6141H74.8704L75.1754 15.5145C75.7535 14.3582 76.4947 13.3714 77.3969 12.5539C78.2969 11.7386 79.3875 11.1075 80.6624 10.6649C81.9394 10.2244 83.3922 10.002 85.0271 10.002L86.7657 9.9957L87.2719 4.38794H90.9969V9.97875H90.9948V13.1892H90.9969L94.2201 9.96605L101.886 9.9364V14.4959H90.9969Z" fill="white"/>
<path d="M90.9969 9.97876H90.9948V13.1892H90.9969V9.97876Z" fill="white"/>
<path d="M112.28 36.9502C109.898 36.9502 107.754 36.3975 105.848 35.292C103.943 34.1865 102.445 32.6215 101.357 30.597C100.268 28.5724 99.724 26.2175 99.724 23.528C99.724 20.8385 100.277 18.3819 101.382 16.3573C102.488 14.3328 104.002 12.7678 105.925 11.6623C107.846 10.5569 109.999 10.0042 112.382 10.0042C114.764 10.0042 117 10.5569 118.889 11.6623C120.779 12.7678 122.274 14.3349 123.381 16.3573C124.487 18.3819 125.039 20.7559 125.039 23.4772C125.039 26.1985 124.478 28.5724 123.356 30.597C122.233 32.6215 120.719 34.1865 118.813 35.292C116.907 36.3975 114.73 36.9502 112.28 36.9502ZM112.331 33.2759C113.794 33.2759 115.154 32.9117 116.414 32.1789C117.672 31.4483 118.693 30.3513 119.476 28.888C120.258 27.4246 120.649 25.6224 120.649 23.4793C120.649 21.3361 120.266 19.4895 119.502 18.0431C118.735 16.5967 117.731 15.5081 116.49 14.7775C115.247 14.0469 113.879 13.6805 112.382 13.6805C110.884 13.6805 109.601 14.0469 108.324 14.7775C107.049 15.5103 106.028 16.5988 105.262 18.0431C104.497 19.4895 104.114 21.3023 104.114 23.4793C104.114 25.6563 104.497 27.4267 105.262 28.888C106.028 30.3513 107.03 31.4483 108.273 32.1789C109.514 32.9117 110.868 33.2759 112.331 33.2759Z" fill="white"/>
<path d="M130.039 36.5923C129.188 36.5923 128.483 36.3106 127.922 35.7494C127.36 35.1882 127.079 34.5 127.079 33.6825C127.079 32.8651 127.36 32.1768 127.922 31.6156C128.483 31.0544 129.188 30.7728 130.039 30.7728C130.891 30.7728 131.587 31.0544 132.132 31.6156C132.676 32.1768 132.949 32.8651 132.949 33.6825C132.949 34.5 132.676 35.1882 132.132 35.7494C131.587 36.3106 130.889 36.5923 130.039 36.5923Z" fill="#3DFCAA"/>
</g>
<defs>
<clipPath id="clip0_2007_346">
<rect width="132.949" height="36.9502" fill="white"/>
</clipPath>
</defs>
</svg>
