<svg width="19" height="18" viewBox="0 0 19 18" fill="none" xmlns="http://www.w3.org/2000/svg">
<path d="M15.525 2.8125H4.27502C3.97666 2.8125 3.69051 2.93103 3.47953 3.142C3.26855 3.35298 3.15002 3.63913 3.15002 3.9375V7.875C3.15002 11.5819 4.9444 13.8284 6.44979 15.0602C8.0712 16.3863 9.68417 16.8363 9.75448 16.8553C9.85116 16.8816 9.95311 16.8816 10.0498 16.8553C10.1201 16.8363 11.731 16.3863 13.3545 15.0602C14.8556 13.8284 16.65 11.5819 16.65 7.875V3.9375C16.65 3.63913 16.5315 3.35298 16.3205 3.142C16.1095 2.93103 15.8234 2.8125 15.525 2.8125ZM15.525 7.875C15.525 10.4815 14.5646 12.5972 12.6703 14.1623C11.8458 14.8414 10.908 15.3698 9.90002 15.7233C8.90525 15.3759 7.97905 14.8569 7.16346 14.1898C5.24674 12.6218 4.27502 10.4977 4.27502 7.875V3.9375H15.525V7.875ZM6.68956 9.96047C6.58401 9.85492 6.52471 9.71177 6.52471 9.5625C6.52471 9.41323 6.58401 9.27008 6.68956 9.16453C6.7951 9.05898 6.93826 8.99969 7.08752 8.99969C7.23679 8.99969 7.37995 9.05898 7.48549 9.16453L8.77502 10.4548L12.3146 6.91453C12.3668 6.86227 12.4289 6.82081 12.4971 6.79253C12.5654 6.76424 12.6386 6.74969 12.7125 6.74969C12.7864 6.74969 12.8596 6.76424 12.9279 6.79253C12.9962 6.82081 13.0582 6.86227 13.1105 6.91453C13.1628 6.96679 13.2042 7.02884 13.2325 7.09712C13.2608 7.1654 13.2753 7.23859 13.2753 7.3125C13.2753 7.38641 13.2608 7.4596 13.2325 7.52788C13.2042 7.59616 13.1628 7.65821 13.1105 7.71047L9.17299 11.648C9.12075 11.7003 9.05871 11.7418 8.99043 11.7701C8.92214 11.7984 8.84895 11.8129 8.77502 11.8129C8.7011 11.8129 8.62791 11.7984 8.55962 11.7701C8.49133 11.7418 8.4293 11.7003 8.37706 11.648L6.68956 9.96047Z" fill="black"/>
</svg>
