<svg width="15" height="15" viewBox="0 0 15 15" fill="none" xmlns="http://www.w3.org/2000/svg">
<g clip-path="url(#clip0_2006_417)">
<path d="M11.875 8.375C11.8761 8.55338 11.8219 8.72772 11.7199 8.87404C11.6178 9.02035 11.473 9.13144 11.3052 9.19203L8.4844 10.2344L7.44534 13.0573C7.38381 13.2245 7.27248 13.3688 7.12638 13.4707C6.98028 13.5726 6.80644 13.6272 6.62831 13.6272C6.45018 13.6272 6.27634 13.5726 6.13024 13.4707C5.98414 13.3688 5.87281 13.2245 5.81128 13.0573L4.76565 10.2344L1.94268 9.19531C1.77552 9.13378 1.63125 9.02245 1.52935 8.87635C1.42744 8.73025 1.3728 8.55641 1.3728 8.37828C1.3728 8.20015 1.42744 8.02631 1.52935 7.88021C1.63125 7.73411 1.77552 7.62278 1.94268 7.56125L4.76565 6.51563L5.80471 3.69266C5.86625 3.52549 5.97757 3.38123 6.12367 3.27932C6.26977 3.17742 6.44362 3.12278 6.62175 3.12278C6.79987 3.12278 6.97372 3.17742 7.11982 3.27932C7.26592 3.38123 7.37724 3.52549 7.43878 3.69266L8.4844 6.51563L11.3074 7.55469C11.4753 7.61582 11.6201 7.72757 11.7217 7.87451C11.8234 8.02145 11.877 8.19632 11.875 8.375ZM8.81253 3.125H9.68753V4C9.68753 4.11603 9.73362 4.22731 9.81567 4.30936C9.89771 4.39141 10.009 4.4375 10.125 4.4375C10.2411 4.4375 10.3523 4.39141 10.4344 4.30936C10.5164 4.22731 10.5625 4.11603 10.5625 4V3.125H11.4375C11.5536 3.125 11.6648 3.07891 11.7469 2.99686C11.8289 2.91481 11.875 2.80353 11.875 2.6875C11.875 2.57147 11.8289 2.46019 11.7469 2.37814C11.6648 2.29609 11.5536 2.25 11.4375 2.25H10.5625V1.375C10.5625 1.25897 10.5164 1.14769 10.4344 1.06564C10.3523 0.983594 10.2411 0.9375 10.125 0.9375C10.009 0.9375 9.89771 0.983594 9.81567 1.06564C9.73362 1.14769 9.68753 1.25897 9.68753 1.375V2.25H8.81253C8.69649 2.25 8.58521 2.29609 8.50317 2.37814C8.42112 2.46019 8.37503 2.57147 8.37503 2.6875C8.37503 2.80353 8.42112 2.91481 8.50317 2.99686C8.58521 3.07891 8.69649 3.125 8.81253 3.125ZM13.625 4.875H13.1875V4.4375C13.1875 4.32147 13.1414 4.21019 13.0594 4.12814C12.9773 4.04609 12.8661 4 12.75 4C12.634 4 12.5227 4.04609 12.4407 4.12814C12.3586 4.21019 12.3125 4.32147 12.3125 4.4375V4.875H11.875C11.759 4.875 11.6477 4.92109 11.5657 5.00314C11.4836 5.08519 11.4375 5.19647 11.4375 5.3125C11.4375 5.42853 11.4836 5.53981 11.5657 5.62186C11.6477 5.70391 11.759 5.75 11.875 5.75H12.3125V6.1875C12.3125 6.30353 12.3586 6.41481 12.4407 6.49686C12.5227 6.57891 12.634 6.625 12.75 6.625C12.8661 6.625 12.9773 6.57891 13.0594 6.49686C13.1414 6.41481 13.1875 6.30353 13.1875 6.1875V5.75H13.625C13.7411 5.75 13.8523 5.70391 13.9344 5.62186C14.0164 5.53981 14.0625 5.42853 14.0625 5.3125C14.0625 5.19647 14.0164 5.08519 13.9344 5.00314C13.8523 4.92109 13.7411 4.875 13.625 4.875Z" fill="#249464"/>
</g>
<defs>
<clipPath id="clip0_2006_417">
<rect width="14" height="14" fill="white" transform="translate(0.5 0.5)"/>
</clipPath>
</defs>
</svg>
